<svg xmlns="http://www.w3.org/2000/svg" width="0.9em" height="0.9em" viewBox="0 0 46 44" fill="none">
  <path fill-rule="evenodd" clip-rule="evenodd" d="M23.2738 25.377C20.8214 27.338 17.7065 28.5113 14.3165 28.5113C6.40971 28.5113 0 22.1288 0 14.2556C0 6.38247 6.40971 0 14.3165 0C22.2233 0 28.633 6.38247 28.633 14.2556C28.633 16.6993 28.0155 18.9994 26.9274 21.0096C26.9716 21.0485 27.0149 21.089 27.0572 21.1311L45.1667 39.1636C46.2778 40.27 46.2778 42.0638 45.1667 43.1702C44.0555 44.2766 42.2541 44.2766 41.143 43.1702L23.2738 25.377ZM24.1024 14.3459C24.1024 19.7773 19.6806 24.1804 14.2259 24.1804C8.7712 24.1804 4.34931 19.7773 4.34931 14.3459C4.34931 8.91436 8.7712 4.51126 14.2259 4.51126C19.6806 4.51126 24.1024 8.91436 24.1024 14.3459Z" fill="#022449"/>
</svg>